<svg width="75" height="45" viewBox="0 0 75 45" fill="none" xmlns="http://www.w3.org/2000/svg">
<g clip-path="url(#clip0_3722_761)">
<path d="M66.1584 41.0883C65.7565 41.0883 65.5699 40.7695 65.5699 40.4983H65.79C65.79 40.7077 65.9479 40.8695 66.1584 40.8695C66.3689 40.8695 66.5316 40.7077 66.5316 40.4983H66.7516C66.7516 40.7695 66.5603 41.0883 66.1584 41.0883ZM67.1775 41.3881H67.4119V44.7191H67.1631V41.8069L65.101 44.7191H64.8618V41.3881H65.1106V44.2766L67.1775 41.3881Z" fill="#081B4D"/>
<path d="M62.615 41.3881H62.8494V44.7191H62.6006V41.8069L60.5385 44.7191H60.2993V41.3881H60.5481V44.2766L62.615 41.3881Z" fill="#081B4D"/>
<path d="M58.0393 41.3881H58.2881V44.7191H58.0393V43.1773H55.9963V44.7191H55.7476V41.3881H55.9963V42.9299H58.0393V41.3881Z" fill="#081B4D"/>
<path d="M51.8533 44.4716H53.8292V44.7191H51.6045V41.3881H53.8005V41.6356H51.8533V42.9299H53.6522V43.1773H51.8533V44.4716Z" fill="#081B4D"/>
<path d="M47.6716 41.3881H49.595V44.7191H49.3462V41.6356H47.9204C47.9156 42.9965 47.8582 44.229 47.3654 44.6097C47.2028 44.7381 47.0114 44.7619 46.8535 44.7191L46.9109 44.4764C47.0353 44.505 47.1214 44.4859 47.2076 44.4193C47.6716 44.0529 47.6716 42.4112 47.6716 41.4357V41.3881Z" fill="#081B4D"/>
<path d="M43.7453 41.3596C44.6974 41.3596 45.372 42.1114 45.372 43.0536C45.372 44.0005 44.6974 44.7524 43.7453 44.7524C42.7932 44.7524 42.1187 44.0005 42.1187 43.0536C42.1187 42.1114 42.7932 41.3596 43.7453 41.3596ZM43.7453 44.4954C44.5348 44.4954 45.0945 43.8435 45.0945 43.0536C45.0945 42.2684 44.5348 41.6165 43.7453 41.6165C42.9559 41.6165 42.3961 42.2684 42.3961 43.0536C42.3961 43.8435 42.9559 44.4954 43.7453 44.4954Z" fill="#081B4D"/>
<path d="M40.3288 44.7191L39.0752 42.9632L38.4006 43.7008V44.7191H38.1519V41.3881H38.4006V43.3296L40.1756 41.3881H40.5106L39.2427 42.7776L40.635 44.7191H40.3288Z" fill="#081B4D"/>
<path d="M34.6106 41.3596C35.5627 41.3596 36.2373 42.1114 36.2373 43.0536C36.2373 44.0005 35.5627 44.7524 34.6106 44.7524C33.6585 44.7524 32.9839 44.0005 32.9839 43.0536C32.9839 42.1114 33.6585 41.3596 34.6106 41.3596ZM34.6106 44.4954C35.4 44.4954 35.9598 43.8435 35.9598 43.0536C35.9598 42.2684 35.4 41.6165 34.6106 41.6165C33.8212 41.6165 33.2614 42.2684 33.2614 43.0536C33.263 43.8435 33.8212 44.4954 34.6106 44.4954Z" fill="#081B4D"/>
<path d="M28.48 41.3881H31.0205V44.7191H30.7717V41.6356H28.7288V44.7191H28.48V41.3881Z" fill="#081B4D"/>
<path d="M23.8084 44.7191L23.4208 43.7055H21.9616L21.5741 44.7191H21.3062L22.5836 41.3881H22.7989L24.0763 44.7191H23.8084ZM22.0573 43.4533H23.3252L22.6888 41.8021L22.0573 43.4533Z" fill="#081B4D"/>
<path d="M17.7053 41.3881H19.6287V44.7191H19.3799V41.6356H17.9541C17.9493 42.9965 17.8919 44.229 17.3991 44.6097C17.2365 44.7381 17.0451 44.7619 16.8872 44.7191L16.9446 44.4764C17.069 44.505 17.1551 44.4859 17.2413 44.4193C17.7053 44.0529 17.7053 42.4112 17.7053 41.4357V41.3881Z" fill="#081B4D"/>
<path d="M14.9763 41.3881H15.2107V44.7191H14.9619V41.8069L12.8999 44.7191H12.6606V41.3881H12.9094V44.2766L14.9763 41.3881Z" fill="#081B4D"/>
<path d="M9.4094 44.4954C9.9022 44.4954 10.3137 44.2385 10.5481 43.8578L10.7921 43.9767C10.5098 44.4431 10.017 44.7524 9.4094 44.7524C8.45731 44.7524 7.78271 44.0005 7.78271 43.0536C7.78271 42.1114 8.45731 41.3596 9.4094 41.3596C10.017 41.3596 10.5098 41.6641 10.7921 42.1352L10.5481 42.2542C10.3137 41.8687 9.9022 41.6165 9.4094 41.6165C8.61998 41.6165 8.06021 42.2684 8.06021 43.0536C8.06021 43.8435 8.61998 44.4954 9.4094 44.4954Z" fill="#081B4D"/>
<path d="M72.1516 35.4907C73.1037 35.4907 73.7783 36.2426 73.7783 37.1848C73.7783 38.1317 73.1037 38.8836 72.1516 38.8836C71.1995 38.8836 70.5249 38.1317 70.5249 37.1848C70.5249 36.2426 71.1995 35.4907 72.1516 35.4907ZM72.1516 38.6266C72.941 38.6266 73.5008 37.9747 73.5008 37.1848C73.5008 36.3996 72.941 35.7477 72.1516 35.7477C71.3622 35.7477 70.8024 36.3996 70.8024 37.1848C70.8024 37.9747 71.3622 38.6266 72.1516 38.6266Z" fill="#081B4D"/>
<path d="M66.6863 35.5193H68.6096V38.8503H68.3608V35.7667H66.9351C66.9303 37.1277 66.8729 38.3601 66.3801 38.7408C66.2174 38.8693 66.026 38.8931 65.8682 38.8503L65.9256 38.6076C66.05 38.6361 66.1361 38.6171 66.2222 38.5505C66.6863 38.1841 66.6863 36.5424 66.6863 35.5669V35.5193Z" fill="#081B4D"/>
<path d="M64.0787 38.8503L62.8252 37.0944L62.1506 37.8319V38.8503H61.9019V35.5193H62.1506V37.4608L63.9256 35.5193H64.2606L62.9927 36.9088L64.385 38.8503H64.0787Z" fill="#081B4D"/>
<path d="M58.0086 38.6028H59.9845V38.8503H57.7598V35.5193H59.9558V35.7667H58.0086V37.0611H59.8075V37.3085H58.0086V38.6028Z" fill="#081B4D"/>
<path d="M55.9438 35.5193V35.7667H54.8577V38.8503H54.6089V35.7667H53.5181V35.5193H55.9438Z" fill="#081B4D"/>
<path d="M50.5549 38.6266C51.0477 38.6266 51.4592 38.3696 51.6936 37.9889L51.9376 38.1079C51.6553 38.5742 51.1625 38.8836 50.5549 38.8836C49.6028 38.8836 48.9282 38.1317 48.9282 37.1848C48.9282 36.2426 49.6028 35.4907 50.5549 35.4907C51.1625 35.4907 51.6553 35.7953 51.9376 36.2664L51.6936 36.3853C51.4592 35.9999 51.0477 35.7477 50.5549 35.7477C49.7655 35.7477 49.2057 36.3996 49.2057 37.1848C49.2057 37.9747 49.7655 38.6266 50.5549 38.6266Z" fill="#081B4D"/>
<path d="M42.4519 38.6028H44.4279V38.8503H42.2031V35.5193H44.3992V35.7667H42.4519V37.0611H44.2508V37.3085H42.4519V38.6028Z" fill="#081B4D"/>
<path d="M38.6623 35.4907C39.6144 35.4907 40.289 36.2426 40.289 37.1848C40.289 38.1317 39.6144 38.8836 38.6623 38.8836C37.7102 38.8836 37.0356 38.1317 37.0356 37.1848C37.0356 36.2426 37.7102 35.4907 38.6623 35.4907ZM38.6623 38.6266C39.4518 38.6266 40.0115 37.9747 40.0115 37.1848C40.0115 36.3996 39.4518 35.7477 38.6623 35.7477C37.8729 35.7477 37.3131 36.3996 37.3131 37.1848C37.3131 37.9747 37.8729 38.6266 38.6623 38.6266Z" fill="#081B4D"/>
<path d="M35.2453 38.8503L33.9917 37.0944L33.3171 37.8319V38.8503H33.0684V35.5193H33.3171V37.4608L35.0921 35.5193H35.4271L34.1592 36.9088L35.5515 38.8503H35.2453Z" fill="#081B4D"/>
<path d="M29.8181 38.6266C30.3109 38.6266 30.7223 38.3696 30.9568 37.9889L31.2008 38.1079C30.9185 38.5742 30.4257 38.8836 29.8181 38.8836C28.866 38.8836 28.1914 38.1317 28.1914 37.1848C28.1914 36.2426 28.866 35.4907 29.8181 35.4907C30.4257 35.4907 30.9185 35.7953 31.2008 36.2664L30.9568 36.3853C30.7223 35.9999 30.3109 35.7477 29.8181 35.7477C29.0287 35.7477 28.4689 36.3996 28.4689 37.1848C28.4689 37.9747 29.0287 38.6266 29.8181 38.6266Z" fill="#081B4D"/>
<path d="M24.9743 35.2195C24.5724 35.2195 24.3858 34.9007 24.3858 34.6295H24.6059C24.6059 34.8388 24.7638 35.0006 24.9743 35.0006C25.1848 35.0006 25.3475 34.8388 25.3475 34.6295H25.5676C25.5676 34.9007 25.3762 35.2195 24.9743 35.2195ZM25.9934 35.5193H26.2278V38.8503H25.979V35.9381L23.917 38.8503H23.6777V35.5193H23.9265V38.4077L25.9934 35.5193Z" fill="#081B4D"/>
<path d="M21.4309 35.5193H21.6653V38.8503H21.4165V35.938L19.3545 38.8503H19.1152V35.5193H19.364V38.4077L21.4309 35.5193Z" fill="#081B4D"/>
<path d="M15.8635 38.6266C16.3563 38.6266 16.7678 38.3696 17.0022 37.9889L17.2462 38.1079C16.9639 38.5742 16.4711 38.8836 15.8635 38.8836C14.9114 38.8836 14.2368 38.1317 14.2368 37.1848C14.2368 36.2426 14.9114 35.4907 15.8635 35.4907C16.4711 35.4907 16.9639 35.7953 17.2462 36.2664L17.0022 36.3853C16.7678 35.9999 16.3563 35.7477 15.8635 35.7477C15.0741 35.7477 14.5143 36.3996 14.5143 37.1848C14.5143 37.9747 15.0741 38.6266 15.8635 38.6266Z" fill="#081B4D"/>
<path d="M11.1286 38.6266C11.6214 38.6266 12.0329 38.3696 12.2673 37.9889L12.5113 38.1079C12.229 38.5742 11.7363 38.8836 11.1286 38.8836C10.1766 38.8836 9.50195 38.1317 9.50195 37.1848C9.50195 36.2426 10.1766 35.4907 11.1286 35.4907C11.7363 35.4907 12.229 35.7953 12.5113 36.2664L12.2673 36.3853C12.0329 35.9999 11.6214 35.7477 11.1286 35.7477C10.3392 35.7477 9.77945 36.3996 9.77945 37.1848C9.77945 37.9747 10.3392 38.6266 11.1286 38.6266Z" fill="#081B4D"/>
<path d="M6.01097 35.4907C6.96306 35.4907 7.63766 36.2426 7.63766 37.1848C7.63766 38.1317 6.96306 38.8836 6.01097 38.8836C5.05887 38.8836 4.38428 38.1317 4.38428 37.1848C4.38428 36.2426 5.05887 35.4907 6.01097 35.4907ZM6.01097 38.6266C6.80039 38.6266 7.36016 37.9747 7.36016 37.1848C7.36016 36.3996 6.80039 35.7477 6.01097 35.7477C5.22154 35.7477 4.66177 36.3996 4.66177 37.1848C4.66177 37.9747 5.22154 38.6266 6.01097 38.6266Z" fill="#081B4D"/>
<path d="M1.49581 35.5193C2.18954 35.5193 2.61057 35.9428 2.61057 36.5376C2.61057 37.1277 2.20389 37.5559 1.49581 37.5559H0.567635V38.8503H0.318848V35.5193H1.49581ZM1.5293 37.3085C2.03166 37.3085 2.35221 37.0039 2.35221 36.5376C2.35221 36.0665 2.0173 35.7667 1.5293 35.7667H0.567635V37.3085H1.5293Z" fill="#081B4D"/>
<path d="M68.2953 12.8291H74.1578V29.7393H68.2953V27.406C65.8154 29.1556 62.7933 30.1866 59.5017 30.1866C51.1577 30.1866 44.3926 23.458 44.3926 15.1591C44.3926 6.86345 51.1561 0.134888 59.5001 0.134888C63.243 0.134888 66.6702 1.47996 69.332 3.72282L64.8219 8.16411C63.2893 7.04268 61.4393 6.41456 59.5001 6.41456C57.1541 6.41456 54.9453 7.31233 53.3218 8.97147C51.6537 10.6306 50.7064 12.8291 50.7064 15.1623C50.7064 17.4956 51.6537 19.6924 53.3218 21.3532C54.9453 22.9679 57.1557 23.9101 59.5001 23.9101C61.8444 23.9101 64.0548 22.9679 65.7229 21.3532C66.0387 21.0391 67.3464 19.694 67.7531 18.6614H60.988V12.8291H68.2953ZM68.2491 18.6598L68.2938 18.7042V18.6598H68.2491Z" fill="#081B4D"/>
<path d="M33.9946 0.583862H41.0309V29.7409H33.9946V0.583862Z" fill="#081B4D"/>
<path fill-rule="evenodd" clip-rule="evenodd" d="M41.0294 0.583801L33.9932 6.12114V0.583801H41.0294Z" fill="#DBDBDB"/>
<path d="M23.4068 29.7409L21.2873 25.6597H10.237L8.1175 29.7409H0L15.7853 0.583801L31.5259 29.7409H23.4068ZM13.0789 20.1858H18.4454L15.7853 15.0719L13.0789 20.1858Z" fill="#081B4D"/>
</g>
<defs>
<clipPath id="clip0_3722_761">
<rect width="74.1579" height="44.7302" fill="white" transform="translate(0 0.134888)"/>
</clipPath>
</defs>
</svg>
