<svg width="24" height="25" viewBox="0 0 24 25" fill="none" xmlns="http://www.w3.org/2000/svg">
<path d="M12 17.5V21.5" stroke="#4B629E" stroke-width="2" stroke-linecap="round" stroke-linejoin="round"/>
<path d="M15.1998 5.4L14.2998 5" stroke="#4B629E" stroke-width="2" stroke-linecap="round" stroke-linejoin="round"/>
<path d="M15.1998 7.6L14.2998 8" stroke="#4B629E" stroke-width="2" stroke-linecap="round" stroke-linejoin="round"/>
<path d="M16.9 3.7L16.5 2.8" stroke="#4B629E" stroke-width="2" stroke-linecap="round" stroke-linejoin="round"/>
<path d="M16.9 9.3L16.5 10.2" stroke="#4B629E" stroke-width="2" stroke-linecap="round" stroke-linejoin="round"/>
<path d="M19.4996 2.79999L19.0996 3.69999" stroke="#4B629E" stroke-width="2" stroke-linecap="round" stroke-linejoin="round"/>
<path d="M19.4996 10.2L19.0996 9.29999" stroke="#4B629E" stroke-width="2" stroke-linecap="round" stroke-linejoin="round"/>
<path d="M21.6998 5L20.7998 5.4" stroke="#4B629E" stroke-width="2" stroke-linecap="round" stroke-linejoin="round"/>
<path d="M21.6998 8L20.7998 7.6" stroke="#4B629E" stroke-width="2" stroke-linecap="round" stroke-linejoin="round"/>
<path d="M22 13.5V15.5C22 16.0304 21.7893 16.5391 21.4142 16.9142C21.0391 17.2893 20.5304 17.5 20 17.5H4C3.46957 17.5 2.96086 17.2893 2.58579 16.9142C2.21071 16.5391 2 16.0304 2 15.5V5.5C2 4.96957 2.21071 4.46086 2.58579 4.08579C2.96086 3.71071 3.46957 3.5 4 3.5H11" stroke="#4B629E" stroke-width="2" stroke-linecap="round" stroke-linejoin="round"/>
<path d="M8 21.5H16" stroke="#4B629E" stroke-width="2" stroke-linecap="round" stroke-linejoin="round"/>
<path d="M18 9.5C19.6569 9.5 21 8.15685 21 6.5C21 4.84315 19.6569 3.5 18 3.5C16.3431 3.5 15 4.84315 15 6.5C15 8.15685 16.3431 9.5 18 9.5Z" stroke="#4B629E" stroke-width="2" stroke-linecap="round" stroke-linejoin="round"/>
</svg>
