<svg width="13" height="18" viewBox="0 0 13 18" fill="none" xmlns="http://www.w3.org/2000/svg">
<path d="M6.5 0.536133C8.08162 0.536133 9.59843 1.16483 10.7168 2.2832C11.8352 3.40157 12.4639 4.91838 12.4639 6.5C12.4639 7.55222 12.0946 8.72802 11.5029 9.92676C10.9143 11.1194 10.1241 12.2972 9.32422 13.3428C8.52551 14.3868 7.72492 15.2892 7.12402 15.9307C6.87761 16.1937 6.66448 16.412 6.5 16.5781C6.33552 16.412 6.12239 16.1937 5.87598 15.9307C5.27508 15.2892 4.47449 14.3868 3.67578 13.3428C2.87591 12.2972 2.08571 11.1194 1.49707 9.92676C0.905442 8.72802 0.536133 7.55222 0.536133 6.5L0.543945 6.2041C0.617111 4.73022 1.23477 3.33163 2.2832 2.2832C3.40157 1.16483 4.91838 0.536133 6.5 0.536133ZM6.5 0.546875C5.01968 0.546875 3.596 1.09794 2.50391 2.08691L2.29004 2.29004C1.1736 3.40648 0.546875 4.92112 0.546875 6.5C0.546875 7.4187 0.827972 8.43241 1.29492 9.47461L1.50586 9.92285C2.02063 10.9661 2.69044 11.9971 3.38477 12.9385L3.68359 13.3369L3.68457 13.3379C4.44238 14.3234 5.253 15.2676 6.1123 16.166L6.5 16.5713L6.8877 16.166C7.53217 15.4922 8.1494 14.7927 8.7373 14.0693L9.31543 13.3379L9.31641 13.3369C10.0153 12.4223 10.7081 11.4067 11.2646 10.3682L11.4941 9.92285V9.92188C12.0848 8.72384 12.4531 7.55 12.4531 6.5C12.4531 5.01968 11.9021 3.596 10.9131 2.50391L10.71 2.29004C9.59352 1.1736 8.07888 0.546875 6.5 0.546875Z" stroke="#081B4D" stroke-width="1.07302"/>
<path d="M6.5 3.78613C7.21966 3.78613 7.91007 4.07218 8.41895 4.58105C8.92782 5.08993 9.21387 5.78034 9.21387 6.5C9.21387 7.21966 8.92782 7.91007 8.41895 8.41895C7.91007 8.92782 7.21966 9.21387 6.5 9.21387C5.78034 9.21387 5.08993 8.92782 4.58105 8.41895C4.07218 7.91007 3.78613 7.21966 3.78613 6.5C3.78613 5.78034 4.07218 5.08993 4.58105 4.58105C5.02624 4.13587 5.6104 3.86155 6.23145 3.7998L6.5 3.78613ZM6.5 3.79688C5.87272 3.79688 5.26812 4.01509 4.78711 4.40918L4.58887 4.58887C4.08192 5.09581 3.79688 5.78307 3.79688 6.5C3.79688 7.12728 4.01509 7.73188 4.40918 8.21289L4.58887 8.41113C5.09581 8.91808 5.78307 9.20312 6.5 9.20312C7.21693 9.20312 7.90419 8.91808 8.41113 8.41113C8.91808 7.90419 9.20312 7.21693 9.20312 6.5C9.20312 5.87272 8.98491 5.26812 8.59082 4.78711L8.41113 4.58887C7.90419 4.08192 7.21693 3.79688 6.5 3.79688Z" stroke="#081B4D" stroke-width="1.07302"/>
</svg>
